# xmcd
#
# Track frame offsets:
#	150
#	8918
#	26566
#	43963
#	65015
#	81118
#	95625
#	123285
#	142133
#	157394
#	172840
#	186122
#	199690
#
# Disc length: 2860 seconds
#
# Revision: 0
# Processed by: cddbd v1.5.1PL0 Copyright (c) Steve Scherf et al.
# Submitted via: dBpowerAMP V4.0
#
DISCID=b80b2a0d
DTITLE=Lonsperch Roffler - Schülchablues
DYEAR=1997
DGENRE=Blues
TTITLE0=Sei net feig
TTITLE1=Plastikpuppn
TTITLE2=Dazöl ma kane Gschichtln
TTITLE3=Schwoaza Anzug
TTITLE4=Schülcha Blues
TTITLE5=Kota Franz
TTITLE6=Nega
TTITLE7=Poustla Blues
TTITLE8=DS 50
TTITLE9=Die gute Fee
TTITLE10=Haun Huat drauf
TTITLE11=I bin fertig
TTITLE12=Bluatig und daschundn
EXTD=
EXTT0=
EXTT1=
EXTT2=
EXTT3=
EXTT4=
EXTT5=
EXTT6=
EXTT7=
EXTT8=
EXTT9=
EXTT10=
EXTT11=
EXTT12=
PLAYORDER=
